# Blender v2.80 (sub 75) OBJ File: ''
# www.blender.org
mtllib pohon1.mtl
o Cylinder
v 15.674001 2466.366943 -253.985611
v 19.167000 3227.034180 22.684526
v 28.744999 3227.034180 26.170527
v 199.847000 2466.367920 -186.951599
v 33.842003 3227.034180 34.997528
v 292.234009 2403.040771 -23.412609
v 32.071999 3227.034180 45.035526
v 263.808990 2466.366943 175.798401
v 24.263000 3227.034180 51.587528
v 113.669998 2466.366943 301.780396
v 14.070000 3227.034180 51.587528
v -87.931999 2403.040771 295.584381
v 6.262000 3227.034180 45.035526
v -232.462006 2466.366943 175.798401
v 4.492000 3227.034180 34.997528
v -266.496002 2466.366943 -17.216597
v 9.589000 3227.034180 26.170527
v -174.108994 2403.040771 -193.147598
v -5.440000 -809.442810 -939.428101
v 637.348022 -809.442871 -705.472107
v 979.367981 -1003.520020 -113.076164
v 860.585999 -1003.520081 560.571838
v 336.580017 -809.443176 1000.264893
v -353.069000 -872.769165 994.067932
v -871.465027 -1003.520081 560.571838
v -990.247009 -1003.520020 -113.076164
v -653.837036 -1066.846802 -711.668213
v -1162.461060 -1054.852905 -150.182159
v -862.932007 -453.386963 -94.124077
v -569.643005 -516.712891 -618.026062
v -766.732971 -1118.178833 -851.516174
v -2.290000 -453.386871 -816.288025
v -6.855000 -1054.852783 -1119.851074
v -1023.077942 -1054.853027 640.298828
v -759.126038 -453.387085 494.588928
v -413.802002 -1118.179199 1150.052856
v -306.796997 -516.713135 872.647949
v 394.483002 -1054.853149 1156.249878
v 296.606995 -453.387146 878.844910
v 1009.367920 -1054.853027 640.299805
v 754.544983 -453.387085 494.588928
v 1143.143066 -1118.178955 -156.378189
v 858.351013 -453.386963 -94.124077
v 747.414001 -1054.852783 -845.319153
v 559.453003 -453.386902 -611.830078
v -470.645020 1692.862061 -47.717724
v -162.981003 2516.458008 10.068410
v -106.769005 2453.130859 -103.203598
v -309.076019 1629.534912 -343.474731
v 15.024000 2516.458008 -139.295578
v 10.725000 1692.862183 -451.634735
v -412.584991 1692.862061 281.558289
v -141.510986 2516.458008 131.830414
v -162.062012 1629.535889 490.282288
v -52.404999 2453.130859 205.109390
v 177.903000 1692.861938 496.478271
v 76.845001 2516.458008 211.305420
v 434.033997 1692.862061 281.558289
v 171.559006 2516.458008 131.830414
v 486.485992 1629.534912 -53.914734
v 193.029007 2516.458008 10.068410
v 324.916992 1692.862061 -337.278717
v 131.209000 2516.458008 -97.007584
v 5.286000 842.699097 -671.041931
v 10.529000 1745.409058 -315.060730
v 242.391998 1745.409058 -230.668716
v 463.774994 842.699036 -504.164886
v 365.763977 1745.409058 -16.982716
v 702.124023 779.371948 -87.814873
v 322.917023 1745.409058 226.012299
v 623.007019 842.698914 398.883118
v 133.901001 1745.408936 384.616272
v 249.243011 842.698853 712.509094
v -118.451996 1682.082886 378.420258
v -244.280991 779.372864 706.312134
v -301.860016 1745.409058 226.012299
v -612.435974 842.698914 398.883118
v -344.705994 1745.409058 -16.982716
v -697.161011 842.698975 -81.618866
v -458.813019 779.373047 -510.361908
v -226.943008 1682.082031 -236.865723
v -864.247986 78.844017 -105.653984
v -545.192017 894.761047 -46.826855
v -359.524017 831.434082 -384.324890
v -569.568970 15.518104 -631.964966
v 5.569000 894.761108 -508.970825
v 0.399000 78.844139 -831.178040
v -759.958984 78.844925 485.799011
v -478.761993 894.760986 329.916168
v -305.498993 15.517859 865.645996
v -191.317001 831.433899 569.622131
v 300.686981 78.844856 871.842957
v 196.847000 894.760925 575.818115
v 760.756042 78.843925 485.799011
v 489.901001 894.760986 329.917175
v 859.435974 15.518019 -111.849998
v 556.330994 894.761047 -46.826855
v 564.755981 78.845100 -625.769043
v 365.054016 894.761108 -378.128845
v -3.388000 -512.940796 -997.131042
v 1.149000 136.518112 -681.815979
v 474.390015 136.519073 -509.569977
v 669.915955 -512.939880 -752.068054
v 726.197021 136.518021 -73.427971
v 1022.565002 -576.267029 -137.744080
v 638.746033 136.518921 422.534027
v 903.752014 -512.940125 574.080933
v 252.954987 136.518875 746.250000
v 354.869995 -512.940186 1034.647827
v -256.266998 73.191879 740.054016
v -367.253998 -576.267212 1028.451904
v -636.447998 136.518921 422.534027
v -910.528015 -512.940125 574.080933
v -723.898987 136.518021 -73.427971
v -1034.948975 -512.940979 -131.548080
v -682.300964 -576.266907 -758.265137
v -477.701996 73.192085 -515.766052
v -18.886000 -1314.389893 -264.436218
v -18.886000 -720.160950 -373.037140
v 231.064011 -720.160950 -282.063141
v 161.257004 -1314.389893 -198.870224
v 364.060028 -720.161011 -51.708118
v 257.108978 -1314.389893 -32.850216
v 317.871002 -720.161072 210.241882
v 223.820007 -1314.389893 155.941772
v 114.110001 -720.161072 381.217865
v 76.966003 -1314.389893 279.166779
v -151.880997 -720.161072 381.217865
v -114.737999 -1314.389893 279.165802
v -355.641998 -720.161072 210.241882
v -261.590973 -1314.389893 155.941772
v -401.830994 -720.161011 -51.708118
v -294.880005 -1314.389893 -32.850216
v -268.835999 -720.160950 -282.063141
v -199.028000 -1314.389893 -198.870224
v -18.886000 -1895.606934 -373.037323
v 231.064011 -1895.606934 -282.063324
v 364.060028 -1895.606934 -51.708309
v 317.871002 -1895.606934 210.241699
v 114.110001 -1895.607056 381.217682
v -151.880997 -1895.607056 381.217682
v -355.641998 -1895.606934 210.241699
v -401.830994 -1895.606934 -51.708309
v -268.835999 -1895.606934 -282.063324
vn 0.3238 0.3221 -0.8896
vn 0.8730 0.3022 -0.3827
vn 0.9536 0.2971 0.0477
vn 0.6109 0.3112 0.7280
vn -0.1164 0.2965 0.9479
vn -0.5313 0.3015 0.7917
vn -0.9327 0.3210 0.1645
vn 0.0000 1.0000 -0.0000
vn -0.3809 0.3169 -0.8686
vn -0.7898 0.3166 -0.5253
vn 0.0415 -0.9991 0.0024
vn -0.7667 0.4310 -0.4757
vn -0.3356 0.4304 -0.8379
vn -0.8898 0.4285 0.1569
vn -0.5511 0.4230 0.7193
vn -0.0455 0.4187 0.9070
vn 0.5844 0.4163 0.6965
vn 0.9079 0.3960 0.1376
vn 0.8023 0.4025 -0.4408
vn 0.3093 0.4266 -0.8499
vn -0.7838 0.3370 -0.5217
vn -0.3783 0.3367 -0.8623
vn -0.9279 0.3351 0.1636
vn -0.5277 0.3288 0.7832
vn -0.1127 0.3256 0.9388
vn 0.6078 0.3254 0.7244
vn 0.9437 0.3122 0.1093
vn 0.8444 0.3173 -0.4317
vn 0.3224 0.3342 -0.8857
vn 0.3209 0.3458 -0.8817
vn 0.8325 0.3304 -0.4447
vn 0.9366 0.3260 0.1283
vn 0.6047 0.3390 0.7207
vn -0.0735 0.3409 0.9372
vn -0.5534 0.3441 0.7585
vn -0.9230 0.3487 0.1627
vn -0.3579 0.3490 -0.8661
vn -0.7906 0.3500 -0.5024
vn -0.7957 0.3507 -0.4939
vn -0.3486 0.3496 -0.8696
vn -0.9228 0.3491 0.1627
vn -0.5664 0.3446 0.7487
vn -0.0551 0.3408 0.9385
vn 0.6048 0.3385 0.7208
vn 0.9359 0.3243 0.1375
vn 0.8290 0.3293 -0.4520
vn 0.3209 0.3461 -0.8816
vn 0.3114 0.4133 -0.8557
vn 0.8077 0.3910 -0.4412
vn 0.9129 0.3849 0.1357
vn 0.5881 0.4035 0.7009
vn -0.0509 0.4056 0.9126
vn -0.5513 0.4096 0.7268
vn -0.8960 0.4150 0.1580
vn -0.3404 0.4168 -0.8429
vn -0.7708 0.4174 -0.4812
vn 0.1824 -0.8628 0.4715
vn 0.4346 -0.8567 0.2778
vn 0.4511 -0.8889 -0.0795
vn 0.0338 -0.8164 -0.5765
vn 0.3326 -0.8240 -0.4586
vn -0.3049 -0.8804 -0.3633
vn -0.6502 -0.7582 0.0485
vn -0.6189 -0.7661 0.1734
vn -0.1439 -0.9072 0.3954
vn -0.1295 -0.9255 0.3559
vn -0.5359 -0.8196 0.2028
vn -0.5873 -0.8093 -0.0082
vn -0.2691 -0.9081 -0.3207
vn 0.1984 -0.8870 -0.4170
vn 0.1156 -0.8858 -0.4495
vn 0.3987 -0.9144 -0.0703
vn 0.3033 -0.9077 0.2901
vn 0.2296 -0.9091 0.3477
vn 0.2137 -0.9379 0.2733
vn 0.2322 -0.9377 0.2586
vn 0.3356 -0.9401 -0.0592
vn 0.1208 -0.9255 -0.3590
vn 0.1379 -0.9257 -0.3523
vn -0.2263 -0.9360 -0.2697
vn -0.5129 -0.8581 -0.0235
vn -0.4618 -0.8659 0.1920
vn -0.1107 -0.9462 0.3041
vn -0.1302 -0.9247 0.3577
vn -0.5031 -0.8320 0.2339
vn -0.5695 -0.8205 -0.0494
vn -0.2660 -0.9104 -0.3170
vn 0.1072 -0.9038 -0.4144
vn 0.1839 -0.9047 -0.3844
vn 0.3927 -0.9170 -0.0692
vn 0.2232 -0.9201 0.3218
vn 0.2799 -0.9193 0.2765
vn 0.2434 -0.9398 0.2401
vn 0.1938 -0.9402 0.2801
vn 0.3381 -0.9392 -0.0596
vn 0.1572 -0.9309 -0.3297
vn 0.0922 -0.9303 -0.3550
vn -0.2282 -0.9348 -0.2720
vn -0.4989 -0.8656 -0.0432
vn -0.4422 -0.8730 0.2057
vn -0.1133 -0.9435 0.3114
vn -0.2817 -0.5673 0.7738
vn -0.6966 -0.6658 0.2673
vn -0.4648 -0.8844 -0.0418
vn -0.5116 -0.7239 -0.4627
vn 0.0523 -0.5359 -0.8427
vn 0.4635 -0.7303 -0.5019
vn 0.2956 -0.9539 -0.0521
vn 0.3663 -0.7441 0.5587
vn 0.2118 -0.9540 0.2122
vn 0.3371 -0.1693 -0.9261
vn 0.8535 -0.1693 -0.4928
vn 0.9706 -0.1693 0.1711
vn 0.6335 -0.1693 0.7550
vn -0.0000 -0.1693 0.9856
vn -0.6335 -0.1693 0.7550
vn -0.9706 -0.1693 0.1711
vn -0.3371 -0.1693 -0.9261
vn -0.8535 -0.1693 -0.4928
vn 0.0000 -1.0000 -0.0000
vn -0.8530 0.1729 -0.4925
vn -0.3369 0.1729 -0.9255
vn -0.9700 0.1729 0.1710
vn -0.6331 0.1729 0.7545
vn -0.0000 0.1729 0.9849
vn 0.6331 0.1729 0.7545
vn 0.9700 0.1729 0.1710
vn 0.8530 0.1729 -0.4925
vn 0.3369 0.1729 -0.9255
usemtl Leaves
s 1
f 1//1 2//1 3//1 4//1
f 4//2 3//2 5//2 6//2
f 6//3 5//3 7//3 8//3
f 8//4 7//4 9//4 10//4
f 10//5 9//5 11//5 12//5
f 12//6 11//6 13//6 14//6
f 14//7 13//7 15//7 16//7
f 3//8 2//8 17//8 15//8 13//8 11//8 9//8 7//8 5//8
f 18//9 17//9 2//9 1//9
f 16//10 15//10 17//10 18//10
f 19//11 20//11 21//11 22//11 23//11 24//11 25//11 26//11 27//11
f 28//12 29//12 30//12 31//12
f 31//13 30//13 32//13 33//13
f 34//14 35//14 29//14 28//14
f 36//15 37//15 35//15 34//15
f 38//16 39//16 37//16 36//16
f 40//17 41//17 39//17 38//17
f 42//18 43//18 41//18 40//18
f 44//19 45//19 43//19 42//19
f 33//20 32//20 45//20 44//20
f 46//21 47//21 48//21 49//21
f 49//22 48//22 50//22 51//22
f 52//23 53//23 47//23 46//23
f 54//24 55//24 53//24 52//24
f 56//25 57//25 55//25 54//25
f 58//26 59//26 57//26 56//26
f 60//27 61//27 59//27 58//27
f 62//28 63//28 61//28 60//28
f 51//29 50//29 63//29 62//29
f 64//30 65//30 66//30 67//30
f 67//31 66//31 68//31 69//31
f 69//32 68//32 70//32 71//32
f 71//33 70//33 72//33 73//33
f 73//34 72//34 74//34 75//34
f 75//35 74//35 76//35 77//35
f 77//36 76//36 78//36 79//36
f 80//37 81//37 65//37 64//37
f 79//38 78//38 81//38 80//38
f 82//39 83//39 84//39 85//39
f 85//40 84//40 86//40 87//40
f 88//41 89//41 83//41 82//41
f 90//42 91//42 89//42 88//42
f 92//43 93//43 91//43 90//43
f 94//44 95//44 93//44 92//44
f 96//45 97//45 95//45 94//45
f 98//46 99//46 97//46 96//46
f 87//47 86//47 99//47 98//47
f 100//48 101//48 102//48 103//48
f 103//49 102//49 104//49 105//49
f 105//50 104//50 106//50 107//50
f 107//51 106//51 108//51 109//51
f 109//52 108//52 110//52 111//52
f 111//53 110//53 112//53 113//53
f 113//54 112//54 114//54 115//54
f 116//55 117//55 101//55 100//55
f 115//56 114//56 117//56 116//56
f 47//57 16//57 18//57 48//57
f 48//58 18//58 1//58 50//58
f 53//59 14//59 16//59 47//59
f 55//60 12//60 14//60 53//60
f 57//61 10//61 12//61 55//61
f 59//62 8//62 10//62 57//62
f 61//63 6//63 8//63 59//63
f 63//64 4//64 6//64 61//64
f 50//65 1//65 4//65 63//65
f 65//66 51//66 62//66 66//66
f 66//67 62//67 60//67 68//67
f 68//68 60//68 58//68 70//68
f 70//69 58//69 56//69 72//69
f 72//70 56//70 54//70 74//70
f 74//71 54//71 52//71 76//71
f 76//72 52//72 46//72 78//72
f 81//73 49//73 51//73 65//73
f 78//74 46//74 49//74 81//74
f 83//75 79//75 80//75 84//75
f 84//76 80//76 64//76 86//76
f 89//77 77//77 79//77 83//77
f 91//78 75//78 77//78 89//78
f 93//79 73//79 75//79 91//79
f 95//80 71//80 73//80 93//80
f 97//81 69//81 71//81 95//81
f 99//82 67//82 69//82 97//82
f 86//83 64//83 67//83 99//83
f 101//84 87//84 98//84 102//84
f 102//85 98//85 96//85 104//85
f 104//86 96//86 94//86 106//86
f 106//87 94//87 92//87 108//87
f 108//88 92//88 90//88 110//88
f 110//89 90//89 88//89 112//89
f 112//90 88//90 82//90 114//90
f 117//91 85//91 87//91 101//91
f 114//92 82//92 85//92 117//92
f 29//93 115//93 116//93 30//93
f 30//94 116//94 100//94 32//94
f 35//95 113//95 115//95 29//95
f 37//96 111//96 113//96 35//96
f 39//97 109//97 111//97 37//97
f 41//98 107//98 109//98 39//98
f 43//99 105//99 107//99 41//99
f 45//100 103//100 105//100 43//100
f 32//101 100//101 103//101 45//101
f 19//102 33//102 44//102 20//102
f 20//103 44//103 42//103 21//103
f 21//104 42//104 40//104 22//104
f 22//105 40//105 38//105 23//105
f 23//106 38//106 36//106 24//106
f 24//107 36//107 34//107 25//107
f 25//108 34//108 28//108 26//108
f 27//109 31//109 33//109 19//109
f 26//110 28//110 31//110 27//110
usemtl Bark
f 118//111 119//111 120//111 121//111
f 121//112 120//112 122//112 123//112
f 123//113 122//113 124//113 125//113
f 125//114 124//114 126//114 127//114
f 127//115 126//115 128//115 129//115
f 129//116 128//116 130//116 131//116
f 131//117 130//117 132//117 133//117
f 120//8 119//8 134//8 132//8 130//8 128//8 126//8 124//8 122//8
f 135//118 134//118 119//118 118//118
f 133//119 132//119 134//119 135//119
f 136//120 137//120 138//120 139//120 140//120 141//120 142//120 143//120 144//120
f 143//121 133//121 135//121 144//121
f 144//122 135//122 118//122 136//122
f 142//123 131//123 133//123 143//123
f 141//124 129//124 131//124 142//124
f 140//125 127//125 129//125 141//125
f 139//126 125//126 127//126 140//126
f 138//127 123//127 125//127 139//127
f 137//128 121//128 123//128 138//128
f 136//129 118//129 121//129 137//129
