# Blender v2.80 (sub 75) OBJ File: ''
# www.blender.org
mtllib star.mtl
o star
v -0.384931 0.734928 0.000000
v -0.623927 0.001238 0.000000
v -0.000000 0.455260 0.000000
v -0.237900 1.187442 0.000000
v -1.009536 1.188018 0.000000
v -0.384931 0.734928 0.000000
v -0.384931 0.734928 0.000000
v 0.237900 1.187442 0.000000
v -0.237900 1.187442 0.000000
v 0.384931 0.734928 0.000000
v -0.384931 0.734928 0.000000
v -0.000000 0.455260 0.000000
v -0.000000 0.455260 0.000000
v 0.623927 0.001238 0.000000
v 0.384931 0.734928 0.000000
v -0.237900 1.187442 0.000000
v 0.237900 1.187442 0.000000
v 0.000000 1.921489 0.000000
v 0.384931 0.734928 0.000000
v 1.009536 1.188018 0.000000
v 0.237900 1.187442 0.000000
v -0.384931 0.734928 0.000000
v 0.384931 0.734928 0.000000
v 0.237900 1.187442 0.000000
v 0.059475 1.207233 -0.125000
v 0.000000 1.390744 -0.125000
v 0.000000 1.921489 0.000000
v 0.118950 1.554465 0.000000
v 0.000000 0.860000 -0.250000
v 0.000000 1.390744 -0.125000
v 0.059475 1.207233 -0.125000
v 0.118950 1.023721 -0.125000
v 0.059475 1.207233 -0.125000
v 0.118950 1.554465 0.000000
v 0.237900 1.187442 0.000000
v 0.000000 0.860000 -0.250000
v 0.059475 1.207233 -0.125000
v 0.118950 1.023721 -0.125000
v 0.504768 1.024009 -0.125000
v 0.118950 1.023721 -0.125000
v 0.237900 1.187442 0.000000
v 1.009536 1.188018 0.000000
v 0.000000 0.860000 -0.250000
v 0.118950 1.023721 -0.125000
v 0.504768 1.024009 -0.125000
v 0.192465 0.797464 -0.125000
v 0.504768 1.024009 -0.125000
v 1.009536 1.188018 0.000000
v 0.384931 0.734928 0.000000
v 0.000000 0.860000 -0.250000
v 0.504768 1.024009 -0.125000
v 0.192465 0.797464 -0.125000
v 0.311964 0.430619 -0.125000
v 0.192465 0.797464 -0.125000
v 0.384931 0.734928 0.000000
v 0.623927 0.001238 0.000000
v 0.000000 0.860000 -0.250000
v 0.192465 0.797464 -0.125000
v 0.311964 0.430619 -0.125000
v -0.000000 0.657630 -0.125000
v 0.311964 0.430619 -0.125000
v 0.623927 0.001238 0.000000
v -0.000000 0.455260 0.000000
v 0.000000 0.860000 -0.250000
v 0.311964 0.430619 -0.125000
v -0.000000 0.657630 -0.125000
v -0.311964 0.430619 -0.125000
v -0.000000 0.657630 -0.125000
v -0.000000 0.455260 0.000000
v -0.623927 0.001238 0.000000
v 0.000000 0.860000 -0.250000
v -0.000000 0.657630 -0.125000
v -0.311964 0.430619 -0.125000
v -0.252215 0.614042 -0.125000
v -0.311964 0.430619 -0.125000
v -0.623927 0.001238 0.000000
v -0.504429 0.368083 0.000000
v 0.000000 0.860000 -0.250000
v -0.311964 0.430619 -0.125000
v -0.252215 0.614042 -0.125000
v -0.192465 0.797464 -0.125000
v -0.252215 0.614042 -0.125000
v -0.504429 0.368083 0.000000
v -0.384931 0.734928 0.000000
v 0.000000 0.860000 -0.250000
v -0.252215 0.614042 -0.125000
v -0.192465 0.797464 -0.125000
v -0.348617 0.910737 -0.125000
v -0.192465 0.797464 -0.125000
v -0.384931 0.734928 0.000000
v -0.697233 0.961473 0.000000
v 0.000000 0.860000 -0.250000
v -0.192465 0.797464 -0.125000
v -0.348617 0.910737 -0.125000
v -0.504768 1.024009 -0.125000
v -0.348617 0.910737 -0.125000
v -0.697233 0.961473 0.000000
v -1.009536 1.188018 0.000000
v 0.000000 0.860000 -0.250000
v -0.348617 0.910737 -0.125000
v -0.504768 1.024009 -0.125000
v -0.311859 1.023865 -0.125000
v -0.504768 1.024009 -0.125000
v -1.009536 1.188018 0.000000
v -0.623718 1.187730 0.000000
v 0.000000 0.860000 -0.250000
v -0.504768 1.024009 -0.125000
v -0.311859 1.023865 -0.125000
v -0.118950 1.023721 -0.125000
v -0.311859 1.023865 -0.125000
v -0.623718 1.187730 0.000000
v -0.237900 1.187442 0.000000
v 0.000000 0.860000 -0.250000
v -0.311859 1.023865 -0.125000
v -0.118950 1.023721 -0.125000
v -0.059475 1.207233 -0.125000
v -0.118950 1.023721 -0.125000
v -0.237900 1.187442 0.000000
v -0.118950 1.554465 0.000000
v 0.000000 0.860000 -0.250000
v -0.118950 1.023721 -0.125000
v -0.059475 1.207233 -0.125000
v 0.000000 1.390744 -0.125000
v -0.059475 1.207233 -0.125000
v -0.118950 1.554465 0.000000
v 0.000000 1.921489 0.000000
v 0.000000 0.860000 -0.250000
v -0.059475 1.207233 -0.125000
v 0.000000 1.390744 -0.125000
v -0.384931 0.734928 0.000000
v -0.000000 0.455260 0.000000
v -0.623927 0.001238 0.000000
v -0.237900 1.187442 0.000000
v -0.384931 0.734928 0.000000
v -1.009536 1.188018 0.000000
v -0.384931 0.734928 0.000000
v -0.237900 1.187442 0.000000
v 0.237900 1.187442 0.000000
v 0.384931 0.734928 0.000000
v -0.000000 0.455260 0.000000
v -0.384931 0.734928 0.000000
v -0.000000 0.455260 0.000000
v 0.384931 0.734928 0.000000
v 0.623927 0.001238 0.000000
v -0.237900 1.187442 0.000000
v 0.000000 1.921489 0.000000
v 0.237900 1.187442 0.000000
v 0.384931 0.734928 0.000000
v 0.237900 1.187442 0.000000
v 1.009536 1.188018 0.000000
v -0.384931 0.734928 0.000000
v 0.237900 1.187442 0.000000
v 0.384931 0.734928 0.000000
v 0.059475 1.207233 0.125000
v 0.118950 1.554465 0.000000
v 0.000000 1.921489 0.000000
v 0.000000 1.390744 0.125000
v 0.000000 0.860000 0.250000
v 0.059475 1.207233 0.125000
v 0.000000 1.390744 0.125000
v 0.118950 1.023721 0.125000
v 0.237900 1.187442 0.000000
v 0.118950 1.554465 0.000000
v 0.059475 1.207233 0.125000
v 0.000000 0.860000 0.250000
v 0.118950 1.023721 0.125000
v 0.059475 1.207233 0.125000
v 0.504768 1.024009 0.125000
v 1.009536 1.188018 0.000000
v 0.237900 1.187442 0.000000
v 0.118950 1.023721 0.125000
v 0.000000 0.860000 0.250000
v 0.504768 1.024009 0.125000
v 0.118950 1.023721 0.125000
v 0.192465 0.797464 0.125000
v 0.384931 0.734928 0.000000
v 1.009536 1.188018 0.000000
v 0.504768 1.024009 0.125000
v 0.000000 0.860000 0.250000
v 0.192465 0.797464 0.125000
v 0.504768 1.024009 0.125000
v 0.311964 0.430619 0.125000
v 0.623927 0.001238 0.000000
v 0.384931 0.734928 0.000000
v 0.192465 0.797464 0.125000
v 0.000000 0.860000 0.250000
v 0.311964 0.430619 0.125000
v 0.192465 0.797464 0.125000
v -0.000000 0.657630 0.125000
v -0.000000 0.455260 0.000000
v 0.623927 0.001238 0.000000
v 0.311964 0.430619 0.125000
v 0.000000 0.860000 0.250000
v -0.000000 0.657630 0.125000
v 0.311964 0.430619 0.125000
v -0.311964 0.430619 0.125000
v -0.623927 0.001238 0.000000
v -0.000000 0.455260 0.000000
v -0.000000 0.657630 0.125000
v 0.000000 0.860000 0.250000
v -0.311964 0.430619 0.125000
v -0.000000 0.657630 0.125000
v -0.252215 0.614042 0.125000
v -0.504429 0.368083 0.000000
v -0.623927 0.001238 0.000000
v -0.311964 0.430619 0.125000
v 0.000000 0.860000 0.250000
v -0.252215 0.614042 0.125000
v -0.311964 0.430619 0.125000
v -0.192465 0.797464 0.125000
v -0.384931 0.734928 0.000000
v -0.504429 0.368083 0.000000
v -0.252215 0.614042 0.125000
v 0.000000 0.860000 0.250000
v -0.192465 0.797464 0.125000
v -0.252215 0.614042 0.125000
v -0.348617 0.910737 0.125000
v -0.697233 0.961473 0.000000
v -0.384931 0.734928 0.000000
v -0.192465 0.797464 0.125000
v 0.000000 0.860000 0.250000
v -0.348617 0.910737 0.125000
v -0.192465 0.797464 0.125000
v -0.504768 1.024009 0.125000
v -1.009536 1.188018 0.000000
v -0.697233 0.961473 0.000000
v -0.348617 0.910737 0.125000
v 0.000000 0.860000 0.250000
v -0.504768 1.024009 0.125000
v -0.348617 0.910737 0.125000
v -0.311859 1.023865 0.125000
v -0.623718 1.187730 0.000000
v -1.009536 1.188018 0.000000
v -0.504768 1.024009 0.125000
v 0.000000 0.860000 0.250000
v -0.311859 1.023865 0.125000
v -0.504768 1.024009 0.125000
v -0.118950 1.023721 0.125000
v -0.237900 1.187442 0.000000
v -0.623718 1.187730 0.000000
v -0.311859 1.023865 0.125000
v 0.000000 0.860000 0.250000
v -0.118950 1.023721 0.125000
v -0.311859 1.023865 0.125000
v -0.059475 1.207233 0.125000
v -0.118950 1.554465 0.000000
v -0.237900 1.187442 0.000000
v -0.118950 1.023721 0.125000
v 0.000000 0.860000 0.250000
v -0.059475 1.207233 0.125000
v -0.118950 1.023721 0.125000
v 0.000000 1.390744 0.125000
v 0.000000 1.921489 0.000000
v -0.118950 1.554465 0.000000
v -0.059475 1.207233 0.125000
v 0.000000 0.860000 0.250000
v 0.000000 1.390744 0.125000
v -0.059475 1.207233 0.125000
vt 0.309353 0.382081
vt 0.190983 0.000000
vt 0.500000 0.236439
vt 0.382173 0.617734
vt 0.000000 0.618034
vt 0.309353 0.382081
vt 0.309353 0.382081
vt 0.617827 0.617734
vt 0.382173 0.617734
vt 0.690647 0.382081
vt 0.309353 0.382081
vt 0.500000 0.236439
vt 0.500000 0.236439
vt 0.809017 0.000000
vt 0.690647 0.382081
vt 0.382173 0.617734
vt 0.617827 0.617734
vt 0.500000 1.000000
vt 0.690647 0.382081
vt 1.000000 0.618034
vt 0.617827 0.617734
vt 0.309353 0.382081
vt 0.690647 0.382081
vt 0.617827 0.617734
vt 0.500000 0.500000
vt 0.000000 0.500000
vt 0.000000 0.000000
vt 0.500000 0.000000
vt 0.500000 1.000000
vt 0.000000 0.500000
vt 0.500000 0.500000
vt 1.000000 0.500000
vt 0.500000 0.500000
vt 0.500000 0.000000
vt 1.000000 0.000000
vt 1.000000 1.000000
vt 0.500000 0.500000
vt 1.000000 0.500000
vt 1.000000 0.500000
vt 0.000000 0.500000
vt 0.000000 0.000000
vt 1.000000 0.000000
vt 1.000000 1.000000
vt 0.000000 0.500000
vt 1.000000 0.500000
vt 1.000000 0.500000
vt 0.000000 0.500000
vt 0.000000 0.000000
vt 1.000000 0.000000
vt 1.000000 1.000000
vt 0.000000 0.500000
vt 1.000000 0.500000
vt 1.000000 0.500000
vt 0.000000 0.500000
vt 0.000000 0.000000
vt 1.000000 0.000000
vt 1.000000 1.000000
vt 0.000000 0.500000
vt 1.000000 0.500000
vt 1.000000 0.500000
vt 0.000000 0.500000
vt 0.000000 0.000000
vt 1.000000 0.000000
vt 1.000000 1.000000
vt 0.000000 0.500000
vt 1.000000 0.500000
vt 1.000000 0.500000
vt 0.000000 0.500000
vt 0.000000 0.000000
vt 1.000000 0.000000
vt 1.000000 1.000000
vt 0.000000 0.500000
vt 1.000000 0.500000
vt 0.500000 0.500000
vt 0.000000 0.500000
vt 0.000000 0.000000
vt 0.500000 0.000000
vt 0.500000 1.000000
vt 0.000000 0.500000
vt 0.500000 0.500000
vt 1.000000 0.500000
vt 0.500000 0.500000
vt 0.500000 0.000000
vt 1.000000 0.000000
vt 1.000000 1.000000
vt 0.500000 0.500000
vt 1.000000 0.500000
vt 0.500000 0.500000
vt 0.000000 0.500000
vt 0.000000 0.000000
vt 0.500000 0.000000
vt 0.500000 1.000000
vt 0.000000 0.500000
vt 0.500000 0.500000
vt 1.000000 0.500000
vt 0.500000 0.500000
vt 0.500000 0.000000
vt 1.000000 0.000000
vt 1.000000 1.000000
vt 0.500000 0.500000
vt 1.000000 0.500000
vt 0.500000 0.500000
vt 0.000000 0.500000
vt 0.000000 0.000000
vt 0.500000 0.000000
vt 0.500000 1.000000
vt 0.000000 0.500000
vt 0.500000 0.500000
vt 1.000000 0.500000
vt 0.500000 0.500000
vt 0.500000 0.000000
vt 1.000000 0.000000
vt 1.000000 1.000000
vt 0.500000 0.500000
vt 1.000000 0.500000
vt 0.500000 0.500000
vt 0.000000 0.500000
vt 0.000000 0.000000
vt 0.500000 0.000000
vt 0.500000 1.000000
vt 0.000000 0.500000
vt 0.500000 0.500000
vt 1.000000 0.500000
vt 0.500000 0.500000
vt 0.500000 0.000000
vt 1.000000 0.000000
vt 1.000000 1.000000
vt 0.500000 0.500000
vt 1.000000 0.500000
vt 0.309353 0.382081
vt 0.500000 0.236439
vt 0.190983 0.000000
vt 0.382173 0.617734
vt 0.309353 0.382081
vt 0.000000 0.618034
vt 0.309353 0.382081
vt 0.382173 0.617734
vt 0.617827 0.617734
vt 0.690647 0.382081
vt 0.500000 0.236439
vt 0.309353 0.382081
vt 0.500000 0.236439
vt 0.690647 0.382081
vt 0.809017 0.000000
vt 0.382173 0.617734
vt 0.500000 1.000000
vt 0.617827 0.617734
vt 0.690647 0.382081
vt 0.617827 0.617734
vt 1.000000 0.618034
vt 0.309353 0.382081
vt 0.617827 0.617734
vt 0.690647 0.382081
vt 0.500000 0.500000
vt 0.500000 0.000000
vt 0.000000 0.000000
vt 0.000000 0.500000
vt 0.500000 1.000000
vt 0.500000 0.500000
vt 0.000000 0.500000
vt 1.000000 0.500000
vt 1.000000 0.000000
vt 0.500000 0.000000
vt 0.500000 0.500000
vt 1.000000 1.000000
vt 1.000000 0.500000
vt 0.500000 0.500000
vt 1.000000 0.500000
vt 1.000000 0.000000
vt 0.000000 0.000000
vt 0.000000 0.500000
vt 1.000000 1.000000
vt 1.000000 0.500000
vt 0.000000 0.500000
vt 1.000000 0.500000
vt 1.000000 0.000000
vt 0.000000 0.000000
vt 0.000000 0.500000
vt 1.000000 1.000000
vt 1.000000 0.500000
vt 0.000000 0.500000
vt 1.000000 0.500000
vt 1.000000 0.000000
vt 0.000000 0.000000
vt 0.000000 0.500000
vt 1.000000 1.000000
vt 1.000000 0.500000
vt 0.000000 0.500000
vt 1.000000 0.500000
vt 1.000000 0.000000
vt 0.000000 0.000000
vt 0.000000 0.500000
vt 1.000000 1.000000
vt 1.000000 0.500000
vt 0.000000 0.500000
vt 1.000000 0.500000
vt 1.000000 0.000000
vt 0.000000 0.000000
vt 0.000000 0.500000
vt 1.000000 1.000000
vt 1.000000 0.500000
vt 0.000000 0.500000
vt 0.500000 0.500000
vt 0.500000 0.000000
vt 0.000000 0.000000
vt 0.000000 0.500000
vt 0.500000 1.000000
vt 0.500000 0.500000
vt 0.000000 0.500000
vt 1.000000 0.500000
vt 1.000000 0.000000
vt 0.500000 0.000000
vt 0.500000 0.500000
vt 1.000000 1.000000
vt 1.000000 0.500000
vt 0.500000 0.500000
vt 0.500000 0.500000
vt 0.500000 0.000000
vt 0.000000 0.000000
vt 0.000000 0.500000
vt 0.500000 1.000000
vt 0.500000 0.500000
vt 0.000000 0.500000
vt 1.000000 0.500000
vt 1.000000 0.000000
vt 0.500000 0.000000
vt 0.500000 0.500000
vt 1.000000 1.000000
vt 1.000000 0.500000
vt 0.500000 0.500000
vt 0.500000 0.500000
vt 0.500000 0.000000
vt 0.000000 0.000000
vt 0.000000 0.500000
vt 0.500000 1.000000
vt 0.500000 0.500000
vt 0.000000 0.500000
vt 1.000000 0.500000
vt 1.000000 0.000000
vt 0.500000 0.000000
vt 0.500000 0.500000
vt 1.000000 1.000000
vt 1.000000 0.500000
vt 0.500000 0.500000
vt 0.500000 0.500000
vt 0.500000 0.000000
vt 0.000000 0.000000
vt 0.000000 0.500000
vt 0.500000 1.000000
vt 0.500000 0.500000
vt 0.000000 0.500000
vt 1.000000 0.500000
vt 1.000000 0.000000
vt 0.500000 0.000000
vt 0.500000 0.500000
vt 1.000000 1.000000
vt 1.000000 0.500000
vt 0.500000 0.500000
vn 0.0000 -0.0000 1.0000
vn 0.5775 0.1872 -0.7947
vn -0.0005 0.6071 -0.7947
vn 0.3564 -0.4914 -0.7947
vn 0.5772 0.1880 -0.7947
vn -0.3572 -0.4908 -0.7947
vn 0.3572 -0.4908 -0.7947
vn -0.5772 0.1880 -0.7947
vn -0.3564 -0.4914 -0.7947
vn 0.0005 0.6070 -0.7947
vn 0.0005 0.6071 -0.7947
vn -0.5775 0.1872 -0.7947
vn -0.0000 0.0000 -1.0000
vn 0.5775 0.1872 0.7947
vn -0.0005 0.6071 0.7947
vn 0.3564 -0.4914 0.7947
vn 0.5772 0.1880 0.7947
vn -0.3572 -0.4908 0.7947
vn 0.3572 -0.4908 0.7947
vn -0.5772 0.1880 0.7947
vn -0.3564 -0.4914 0.7947
vn 0.0005 0.6070 0.7947
vn 0.0005 0.6071 0.7947
vn -0.5775 0.1872 0.7947
usemtl Default
s 1
f 1/1/1 2/2/1 3/3/1
f 4/4/1 5/5/1 6/6/1
f 7/7/1 8/8/1 9/9/1
f 10/10/1 11/11/1 12/12/1
f 13/13/1 14/14/1 15/15/1
f 16/16/1 17/17/1 18/18/1
f 19/19/1 20/20/1 21/21/1
f 22/22/1 23/23/1 24/24/1
f 25/25/2 26/26/2 27/27/2 28/28/2
f 29/29/2 30/30/2 31/31/2
f 32/32/2 33/33/2 34/34/2 35/35/2
f 36/36/2 37/37/2 38/38/2
f 39/39/3 40/40/3 41/41/3 42/42/3
f 43/43/3 44/44/3 45/45/3
f 46/46/4 47/47/4 48/48/4 49/49/4
f 50/50/4 51/51/4 52/52/4
f 53/53/5 54/54/5 55/55/5 56/56/5
f 57/57/5 58/58/5 59/59/5
f 60/60/6 61/61/6 62/62/6 63/63/6
f 64/64/6 65/65/6 66/66/6
f 67/67/7 68/68/7 69/69/7 70/70/7
f 71/71/7 72/72/7 73/73/7
f 74/74/8 75/75/8 76/76/8 77/77/8
f 78/78/8 79/79/8 80/80/8
f 81/81/8 82/82/8 83/83/8 84/84/8
f 85/85/8 86/86/8 87/87/8
f 88/88/9 89/89/9 90/90/9 91/91/9
f 92/92/9 93/93/9 94/94/9
f 95/95/9 96/96/9 97/97/9 98/98/9
f 99/99/9 100/100/9 101/101/9
f 102/102/10 103/103/10 104/104/10 105/105/10
f 106/106/11 107/107/11 108/108/11
f 109/109/11 110/110/11 111/111/11 112/112/11
f 113/113/11 114/114/11 115/115/11
f 116/116/12 117/117/12 118/118/12 119/119/12
f 120/120/12 121/121/12 122/122/12
f 123/123/12 124/124/12 125/125/12 126/126/12
f 127/127/12 128/128/12 129/129/12
f 130/130/13 131/131/13 132/132/13
f 133/133/13 134/134/13 135/135/13
f 136/136/13 137/137/13 138/138/13
f 139/139/13 140/140/13 141/141/13
f 142/142/13 143/143/13 144/144/13
f 145/145/13 146/146/13 147/147/13
f 148/148/13 149/149/13 150/150/13
f 151/151/13 152/152/13 153/153/13
f 154/154/14 155/155/14 156/156/14 157/157/14
f 158/158/14 159/159/14 160/160/14
f 161/161/14 162/162/14 163/163/14 164/164/14
f 165/165/14 166/166/14 167/167/14
f 168/168/15 169/169/15 170/170/15 171/171/15
f 172/172/15 173/173/15 174/174/15
f 175/175/16 176/176/16 177/177/16 178/178/16
f 179/179/16 180/180/16 181/181/16
f 182/182/17 183/183/17 184/184/17 185/185/17
f 186/186/17 187/187/17 188/188/17
f 189/189/18 190/190/18 191/191/18 192/192/18
f 193/193/18 194/194/18 195/195/18
f 196/196/19 197/197/19 198/198/19 199/199/19
f 200/200/19 201/201/19 202/202/19
f 203/203/20 204/204/20 205/205/20 206/206/20
f 207/207/20 208/208/20 209/209/20
f 210/210/20 211/211/20 212/212/20 213/213/20
f 214/214/20 215/215/20 216/216/20
f 217/217/21 218/218/21 219/219/21 220/220/21
f 221/221/21 222/222/21 223/223/21
f 224/224/21 225/225/21 226/226/21 227/227/21
f 228/228/21 229/229/21 230/230/21
f 231/231/22 232/232/22 233/233/22 234/234/22
f 235/235/23 236/236/23 237/237/23
f 238/238/23 239/239/23 240/240/23 241/241/23
f 242/242/23 243/243/23 244/244/23
f 245/245/24 246/246/24 247/247/24 248/248/24
f 249/249/24 250/250/24 251/251/24
f 252/252/24 253/253/24 254/254/24 255/255/24
f 256/256/24 257/257/24 258/258/24
