# Blender v2.80 (sub 75) OBJ File: ''
# www.blender.org
mtllib tree2.mtl
o Cylinder
v 0.023511 3.699551 -0.380978
v 0.028751 4.840551 0.034027
v 0.043118 4.840551 0.039256
v 0.299771 3.699552 -0.280427
v 0.050763 4.840551 0.052496
v 0.438351 3.604561 -0.035119
v 0.048108 4.840551 0.067553
v 0.395714 3.699551 0.263698
v 0.036394 4.840551 0.077381
v 0.170505 3.699551 0.452671
v 0.021105 4.840551 0.077381
v -0.131898 3.604561 0.443377
v 0.009393 4.840551 0.067553
v -0.348693 3.699551 0.263698
v 0.006738 4.840551 0.052496
v -0.399744 3.699551 -0.025825
v 0.014383 4.840551 0.039256
v -0.261164 3.604561 -0.289721
v -0.008160 -1.214164 -1.409142
v 0.956022 -1.214164 -1.058208
v 1.469052 -1.505280 -0.169614
v 1.290879 -1.505280 0.840858
v 0.504870 -1.214165 1.500397
v -0.529603 -1.309154 1.491102
v -1.307198 -1.505280 0.840858
v -1.485371 -1.505280 -0.169614
v -0.980756 -1.600270 -1.067502
v -1.743692 -1.582279 -0.225273
v -1.294398 -0.680080 -0.141186
v -0.854465 -0.775069 -0.927039
v -1.150100 -1.677268 -1.277274
v -0.003435 -0.680080 -1.224432
v -0.010282 -1.582279 -1.679777
v -1.534617 -1.582280 0.960448
v -1.138689 -0.680081 0.741883
v -0.620703 -1.677269 1.725079
v -0.460195 -0.775070 1.308972
v 0.591725 -1.582280 1.734375
v 0.444910 -0.680081 1.318267
v 1.514052 -1.582280 0.960450
v 1.131817 -0.680081 0.741883
v 1.714715 -1.677269 -0.234567
v 1.287526 -0.680080 -0.141186
v 1.121121 -1.582279 -1.267979
v 0.839180 -0.680080 -0.917745
v -0.705968 2.539293 -0.071577
v -0.244472 3.774687 0.015103
v -0.160154 3.679697 -0.154805
v -0.463614 2.444303 -0.515212
v 0.022536 3.774687 -0.208943
v 0.016088 2.539293 -0.677452
v -0.618877 2.539293 0.422337
v -0.212266 3.774687 0.197746
v -0.243093 2.444304 0.735423
v -0.078607 3.679697 0.307664
v 0.266854 2.539293 0.744717
v 0.115268 3.774687 0.316958
v 0.651051 2.539293 0.422337
v 0.257339 3.774687 0.197746
v 0.729729 2.444303 -0.080872
v 0.289544 3.774687 0.015103
v 0.487375 2.539293 -0.505918
v 0.196813 3.774687 -0.145511
v 0.007929 1.264049 -1.006563
v 0.015794 2.618114 -0.472591
v 0.363588 2.618114 -0.346003
v 0.695662 1.264049 -0.756247
v 0.548646 2.618114 -0.025474
v 1.053186 1.169058 -0.131722
v 0.484376 2.618114 0.339018
v 0.934510 1.264048 0.598325
v 0.200852 2.618114 0.576924
v 0.373865 1.264048 1.068764
v -0.177678 2.523124 0.567630
v -0.366421 1.169059 1.059468
v -0.452790 2.618114 0.339018
v -0.918654 1.264048 0.598325
v -0.517059 2.618114 -0.025474
v -1.045742 1.264048 -0.122428
v -0.688220 1.169060 -0.765543
v -0.340414 2.523123 -0.355299
v -1.296372 0.118266 -0.158481
v -0.817788 1.342142 -0.070240
v -0.539286 1.247151 -0.576487
v -0.854353 0.023277 -0.947948
v 0.008353 1.342142 -0.763456
v 0.000599 0.118266 -1.246767
v -1.139938 0.118267 0.728698
v -0.718143 1.342141 0.494874
v -0.458248 0.023277 1.298469
v -0.286976 1.247151 0.854433
v 0.451030 0.118267 1.307765
v 0.295271 1.342141 0.863727
v 1.141134 0.118266 0.728698
v 0.734851 1.342141 0.494876
v 1.289154 0.023277 -0.167775
v 0.834496 1.342142 -0.070240
v 0.847134 0.118268 -0.938654
v 0.547581 1.342142 -0.567193
v -0.005082 -0.769411 -1.495697
v 0.001723 0.204777 -1.022724
v 0.711585 0.204779 -0.764355
v 1.004874 -0.769410 -1.128102
v 1.089296 0.204777 -0.110142
v 1.533848 -0.864400 -0.206616
v 0.958119 0.204778 0.633801
v 1.355628 -0.769410 0.861121
v 0.379432 0.204778 1.119375
v 0.532305 -0.769410 1.551972
v -0.384401 0.109788 1.110081
v -0.550881 -0.864401 1.542678
v -0.954672 0.204778 0.633801
v -1.365792 -0.769410 0.861121
v -1.085849 0.204777 -0.110142
v -1.552423 -0.769411 -0.197322
v -1.023451 -0.864400 -1.137398
v -0.716553 0.109788 -0.773649
v -0.028329 -1.971585 -0.396654
v -0.028329 -1.080241 -0.559556
v 0.346596 -1.080241 -0.423095
v 0.241885 -1.971585 -0.298305
v 0.546090 -1.080242 -0.077562
v 0.385663 -1.971585 -0.049275
v 0.476807 -1.080242 0.315363
v 0.335730 -1.971585 0.233913
v 0.171165 -1.080242 0.571827
v 0.115449 -1.971585 0.418750
v -0.227821 -1.080242 0.571827
v -0.172107 -1.971585 0.418749
v -0.533463 -1.080242 0.315363
v -0.392386 -1.971585 0.233913
v -0.602746 -1.080242 -0.077562
v -0.442320 -1.971585 -0.049275
v -0.403254 -1.080241 -0.423095
v -0.298542 -1.971585 -0.298305
v -0.028329 -2.843410 -0.559556
v 0.346596 -2.843410 -0.423095
v 0.546090 -2.843410 -0.077562
v 0.476807 -2.843410 0.315363
v 0.171165 -2.843410 0.571827
v -0.227821 -2.843410 0.571827
v -0.533463 -2.843410 0.315363
v -0.602746 -2.843410 -0.077562
v -0.403254 -2.843410 -0.423095
vn 0.3238 0.3221 -0.8896
vn 0.8730 0.3022 -0.3827
vn 0.9536 0.2971 0.0477
vn 0.6109 0.3112 0.7280
vn -0.1164 0.2965 0.9479
vn -0.5313 0.3015 0.7917
vn -0.9327 0.3210 0.1645
vn 0.0000 1.0000 -0.0000
vn -0.3809 0.3169 -0.8686
vn -0.7898 0.3166 -0.5253
vn 0.0415 -0.9991 0.0024
vn -0.7667 0.4310 -0.4757
vn -0.3356 0.4304 -0.8379
vn -0.8898 0.4285 0.1569
vn -0.5511 0.4230 0.7193
vn -0.0455 0.4187 0.9070
vn 0.5844 0.4163 0.6965
vn 0.9079 0.3960 0.1376
vn 0.8023 0.4025 -0.4408
vn 0.3093 0.4266 -0.8499
vn -0.7838 0.3370 -0.5217
vn -0.3783 0.3367 -0.8623
vn -0.9279 0.3351 0.1636
vn -0.5277 0.3288 0.7832
vn -0.1127 0.3256 0.9388
vn 0.6078 0.3254 0.7244
vn 0.9437 0.3122 0.1093
vn 0.8444 0.3173 -0.4317
vn 0.3224 0.3342 -0.8857
vn 0.3209 0.3458 -0.8817
vn 0.8325 0.3304 -0.4447
vn 0.9366 0.3260 0.1283
vn 0.6047 0.3390 0.7207
vn -0.0735 0.3409 0.9372
vn -0.5534 0.3441 0.7585
vn -0.9230 0.3487 0.1627
vn -0.3579 0.3490 -0.8661
vn -0.7906 0.3500 -0.5024
vn -0.7957 0.3507 -0.4939
vn -0.3486 0.3496 -0.8696
vn -0.9228 0.3491 0.1627
vn -0.5664 0.3446 0.7487
vn -0.0551 0.3408 0.9385
vn 0.6048 0.3385 0.7208
vn 0.9359 0.3243 0.1375
vn 0.8290 0.3293 -0.4520
vn 0.3209 0.3461 -0.8816
vn 0.3114 0.4133 -0.8557
vn 0.8077 0.3910 -0.4412
vn 0.9129 0.3849 0.1357
vn 0.5881 0.4035 0.7009
vn -0.0509 0.4056 0.9126
vn -0.5513 0.4096 0.7268
vn -0.8960 0.4150 0.1580
vn -0.3404 0.4168 -0.8429
vn -0.7708 0.4174 -0.4812
vn 0.1824 -0.8628 0.4715
vn 0.4346 -0.8567 0.2778
vn 0.4511 -0.8889 -0.0795
vn 0.0338 -0.8164 -0.5765
vn 0.3326 -0.8240 -0.4586
vn -0.3049 -0.8804 -0.3633
vn -0.6502 -0.7582 0.0485
vn -0.6189 -0.7661 0.1734
vn -0.1439 -0.9072 0.3954
vn -0.1295 -0.9255 0.3559
vn -0.5359 -0.8196 0.2028
vn -0.5873 -0.8093 -0.0082
vn -0.2691 -0.9081 -0.3207
vn 0.1984 -0.8870 -0.4170
vn 0.1156 -0.8858 -0.4495
vn 0.3987 -0.9144 -0.0703
vn 0.3033 -0.9077 0.2901
vn 0.2296 -0.9091 0.3477
vn 0.2137 -0.9379 0.2733
vn 0.2322 -0.9377 0.2586
vn 0.3356 -0.9401 -0.0592
vn 0.1208 -0.9255 -0.3590
vn 0.1379 -0.9257 -0.3523
vn -0.2263 -0.9360 -0.2697
vn -0.5129 -0.8581 -0.0235
vn -0.4618 -0.8659 0.1920
vn -0.1107 -0.9462 0.3041
vn -0.1302 -0.9247 0.3577
vn -0.5031 -0.8320 0.2339
vn -0.5695 -0.8205 -0.0494
vn -0.2660 -0.9104 -0.3170
vn 0.1072 -0.9038 -0.4144
vn 0.1839 -0.9047 -0.3844
vn 0.3927 -0.9170 -0.0692
vn 0.2232 -0.9201 0.3218
vn 0.2799 -0.9193 0.2765
vn 0.2434 -0.9398 0.2401
vn 0.1938 -0.9402 0.2801
vn 0.3381 -0.9392 -0.0596
vn 0.1572 -0.9309 -0.3297
vn 0.0922 -0.9303 -0.3550
vn -0.2282 -0.9348 -0.2720
vn -0.4989 -0.8656 -0.0432
vn -0.4422 -0.8730 0.2057
vn -0.1133 -0.9435 0.3114
vn -0.2817 -0.5673 0.7738
vn -0.6966 -0.6658 0.2673
vn -0.4648 -0.8844 -0.0418
vn -0.5116 -0.7239 -0.4627
vn 0.0523 -0.5359 -0.8427
vn 0.4635 -0.7303 -0.5019
vn 0.2956 -0.9539 -0.0521
vn 0.3663 -0.7441 0.5587
vn 0.2118 -0.9540 0.2122
vn 0.3371 -0.1693 -0.9261
vn 0.8535 -0.1693 -0.4928
vn 0.9706 -0.1693 0.1711
vn 0.6335 -0.1693 0.7550
vn -0.0000 -0.1693 0.9856
vn -0.6335 -0.1693 0.7550
vn -0.9706 -0.1693 0.1711
vn -0.3371 -0.1693 -0.9261
vn -0.8535 -0.1693 -0.4928
vn 0.0000 -1.0000 -0.0000
vn -0.8530 0.1729 -0.4925
vn -0.3369 0.1729 -0.9255
vn -0.9700 0.1729 0.1710
vn -0.6331 0.1729 0.7545
vn -0.0000 0.1729 0.9849
vn 0.6331 0.1729 0.7545
vn 0.9700 0.1729 0.1710
vn 0.8530 0.1729 -0.4925
vn 0.3369 0.1729 -0.9255
usemtl Leaves
s 1
f 1//1 2//1 3//1 4//1
f 4//2 3//2 5//2 6//2
f 6//3 5//3 7//3 8//3
f 8//4 7//4 9//4 10//4
f 10//5 9//5 11//5 12//5
f 12//6 11//6 13//6 14//6
f 14//7 13//7 15//7 16//7
f 3//8 2//8 17//8 15//8 13//8 11//8 9//8 7//8 5//8
f 18//9 17//9 2//9 1//9
f 16//10 15//10 17//10 18//10
f 19//11 20//11 21//11 22//11 23//11 24//11 25//11 26//11 27//11
f 28//12 29//12 30//12 31//12
f 31//13 30//13 32//13 33//13
f 34//14 35//14 29//14 28//14
f 36//15 37//15 35//15 34//15
f 38//16 39//16 37//16 36//16
f 40//17 41//17 39//17 38//17
f 42//18 43//18 41//18 40//18
f 44//19 45//19 43//19 42//19
f 33//20 32//20 45//20 44//20
f 46//21 47//21 48//21 49//21
f 49//22 48//22 50//22 51//22
f 52//23 53//23 47//23 46//23
f 54//24 55//24 53//24 52//24
f 56//25 57//25 55//25 54//25
f 58//26 59//26 57//26 56//26
f 60//27 61//27 59//27 58//27
f 62//28 63//28 61//28 60//28
f 51//29 50//29 63//29 62//29
f 64//30 65//30 66//30 67//30
f 67//31 66//31 68//31 69//31
f 69//32 68//32 70//32 71//32
f 71//33 70//33 72//33 73//33
f 73//34 72//34 74//34 75//34
f 75//35 74//35 76//35 77//35
f 77//36 76//36 78//36 79//36
f 80//37 81//37 65//37 64//37
f 79//38 78//38 81//38 80//38
f 82//39 83//39 84//39 85//39
f 85//40 84//40 86//40 87//40
f 88//41 89//41 83//41 82//41
f 90//42 91//42 89//42 88//42
f 92//43 93//43 91//43 90//43
f 94//44 95//44 93//44 92//44
f 96//45 97//45 95//45 94//45
f 98//46 99//46 97//46 96//46
f 87//47 86//47 99//47 98//47
f 100//48 101//48 102//48 103//48
f 103//49 102//49 104//49 105//49
f 105//50 104//50 106//50 107//50
f 107//51 106//51 108//51 109//51
f 109//52 108//52 110//52 111//52
f 111//53 110//53 112//53 113//53
f 113//54 112//54 114//54 115//54
f 116//55 117//55 101//55 100//55
f 115//56 114//56 117//56 116//56
f 47//57 16//57 18//57 48//57
f 48//58 18//58 1//58 50//58
f 53//59 14//59 16//59 47//59
f 55//60 12//60 14//60 53//60
f 57//61 10//61 12//61 55//61
f 59//62 8//62 10//62 57//62
f 61//63 6//63 8//63 59//63
f 63//64 4//64 6//64 61//64
f 50//65 1//65 4//65 63//65
f 65//66 51//66 62//66 66//66
f 66//67 62//67 60//67 68//67
f 68//68 60//68 58//68 70//68
f 70//69 58//69 56//69 72//69
f 72//70 56//70 54//70 74//70
f 74//71 54//71 52//71 76//71
f 76//72 52//72 46//72 78//72
f 81//73 49//73 51//73 65//73
f 78//74 46//74 49//74 81//74
f 83//75 79//75 80//75 84//75
f 84//76 80//76 64//76 86//76
f 89//77 77//77 79//77 83//77
f 91//78 75//78 77//78 89//78
f 93//79 73//79 75//79 91//79
f 95//80 71//80 73//80 93//80
f 97//81 69//81 71//81 95//81
f 99//82 67//82 69//82 97//82
f 86//83 64//83 67//83 99//83
f 101//84 87//84 98//84 102//84
f 102//85 98//85 96//85 104//85
f 104//86 96//86 94//86 106//86
f 106//87 94//87 92//87 108//87
f 108//88 92//88 90//88 110//88
f 110//89 90//89 88//89 112//89
f 112//90 88//90 82//90 114//90
f 117//91 85//91 87//91 101//91
f 114//92 82//92 85//92 117//92
f 29//93 115//93 116//93 30//93
f 30//94 116//94 100//94 32//94
f 35//95 113//95 115//95 29//95
f 37//96 111//96 113//96 35//96
f 39//97 109//97 111//97 37//97
f 41//98 107//98 109//98 39//98
f 43//99 105//99 107//99 41//99
f 45//100 103//100 105//100 43//100
f 32//101 100//101 103//101 45//101
f 19//102 33//102 44//102 20//102
f 20//103 44//103 42//103 21//103
f 21//104 42//104 40//104 22//104
f 22//105 40//105 38//105 23//105
f 23//106 38//106 36//106 24//106
f 24//107 36//107 34//107 25//107
f 25//108 34//108 28//108 26//108
f 27//109 31//109 33//109 19//109
f 26//110 28//110 31//110 27//110
usemtl Bark
f 118//111 119//111 120//111 121//111
f 121//112 120//112 122//112 123//112
f 123//113 122//113 124//113 125//113
f 125//114 124//114 126//114 127//114
f 127//115 126//115 128//115 129//115
f 129//116 128//116 130//116 131//116
f 131//117 130//117 132//117 133//117
f 120//8 119//8 134//8 132//8 130//8 128//8 126//8 124//8 122//8
f 135//118 134//118 119//118 118//118
f 133//119 132//119 134//119 135//119
f 136//120 137//120 138//120 139//120 140//120 141//120 142//120 143//120 144//120
f 143//121 133//121 135//121 144//121
f 144//122 135//122 118//122 136//122
f 142//123 131//123 133//123 143//123
f 141//124 129//124 131//124 142//124
f 140//125 127//125 129//125 141//125
f 139//126 125//126 127//126 140//126
f 138//127 123//127 125//127 139//127
f 137//128 121//128 123//128 138//128
f 136//129 118//129 121//129 137//129
